0
SECTION
2
HEADER
9
$ACADVER
1
AC1024
9
$INSUNITS
70
6
9
$HANDSEED
5
100
0
ENDSEC
0
SECTION
2
TABLES
0
TABLE
2
LAYER
70
2
0
LAYER
5
2
100
AcDbSymbolTableRecord
100
AcDbLayerTableRecord
2
0
70
0
62
7
6
CONTINUOUS
0
LAYER
5
3
100
AcDbSymbolTableRecord
100
AcDbLayerTableRecord
2
LOT
70
0
62
3
6
CONTINUOUS
0
ENDTAB
0
ENDSEC
0
SECTION
2
BLOCKS
0
ENDSEC
0
SECTION
2
ENTITIES
0
LWPOLYLINE
5
10
100
AcDbEntity
8
LOT
100
AcDbPolyline
90
4
70
1
10
0.0
20
0.0
10
10.0
20
0.0
10
10.0
20
8.0
10
0.0
20
8.0
0
LWPOLYLINE
5
11
100
AcDbEntity
8
LOT
100
AcDbPolyline
90
4
70
1
10
15.0
20
0.0
10
27.0
20
0.0
10
27.0
20
6.0
10
15.0
20
6.0
0
LWPOLYLINE
5
12
100
AcDbEntity
8
LOT
100
AcDbPolyline
90
4
70
1
10
0.0
20
12.0
10
19.0
20
12.0
10
19.0
20
14.0
10
0.0
20
14.0
0
ENDSEC
0
SECTION
2
OBJECTS
0
DICTIONARY
5
C
100
AcDbDictionary
281
1
0
ENDSEC
0
EOF
